<svg version="1.1" viewBox="0.0 0.0 960.0 720.0" fill="none" stroke="none" stroke-linecap="square" stroke-miterlimit="10" xmlns:xlink="http://www.w3.org/1999/xlink" xmlns="http://www.w3.org/2000/svg"><clipPath id="p.0"><path d="m0 0l960.0 0l0 720.0l-960.0 0l0 -720.0z" clip-rule="nonzero"/></clipPath><g clip-path="url(#p.0)"><path fill="#000000" fill-opacity="0.0" d="m0 0l960.0 0l0 720.0l-960.0 0z" fill-rule="evenodd"/><path fill="#222222" d="m15.422558 128.98624l0 479.85666l46.571133 0l0 -377.077l192.79446 377.077l49.826096 0l0 -479.85666l-46.571136 0l0 376.74966l-192.79446 -376.74966z" fill-rule="evenodd"/><path fill="#222222" d="m384.23587 128.98624l0 479.85666l229.35031 0l0 -56.627014l-180.77612 0l0 -423.22964z" fill-rule="evenodd"/><path fill="#222222" d="m798.11804 120.80315c-24.704407 0 -47.155334 5.4553986 -67.352905 16.36618c-20.19751 10.910797 -35.55426 26.913284 -46.070312 48.007492c-10.516113 21.02147 -15.774109 43.643173 -15.774109 67.86513c0 22.03981 4.2843018 41.9702 12.852966 59.791153c8.624268 17.74823 21.699768 32.62326 39.226562 44.625122c13.52063 9.383301 37.140076 19.384857 70.858215 30.0047c33.7182 10.547089 55.501465 18.330109 65.34985 23.34909c15.3567505 7.6375427 26.373596 17.093536 33.050476 28.368042c6.676819 11.201752 10.015259 24.331085 10.015259 39.38797c0 14.838684 -3.477478 28.549896 -10.432556 41.133698c-6.899414 12.510986 -17.44336 22.367126 -31.631653 29.568237c-14.1883545 7.201111 -30.546692 10.801697 -49.07495 10.801697c-20.865234 0 -39.64392 -4.7280273 -56.33606 -14.184021c-16.6922 -9.528809 -29.01654 -21.967102 -36.973145 -37.31494c-7.90094 -15.420593 -12.936462 -35.13275 -15.106384 -59.136475l-45.820007 5.2371826c0.6676636 32.07773 7.3723755 60.845825 20.114075 86.30438c12.797302 25.385742 30.407532 44.40692 52.83069 57.063416c22.47876 12.656494 50.326843 18.984802 83.54425 18.984802c26.206665 0 49.770447 -6.255554 70.691284 -18.766602c20.976501 -12.583801 37.05664 -30.150146 48.240356 -52.699097c11.183777 -22.621765 16.775635 -46.69821 16.775635 -72.22946c0 -25.749481 -5.0911255 -48.480316 -15.273315 -68.192444c-10.182251 -19.784912 -25.956299 -36.114716 -47.322266 -48.98947c-14.689148 -8.728638 -41.78607 -18.912018 -81.29083 -30.550201c-39.449158 -11.710907 -63.847534 -23.13089 -73.19513 -34.259888c-9.514526 -11.129028 -14.271851 -25.31305 -14.271851 -42.552094c0 -19.85765 6.704712 -36.80574 20.114075 -50.8443c13.465027 -14.111298 34.886658 -21.166931 64.26483 -21.166931c28.209778 0 49.52008 7.7466583 63.93097 23.23999c14.466553 15.493317 22.951721 38.40599 25.455566 68.737976l46.571106 -4.5825195c-0.8345947 -28.149841 -6.84375 -53.353775 -18.027527 -75.6118c-11.183716 -22.25801 -27.180359 -39.097 -47.98993 -50.516968c-20.753906 -11.492699 -44.735046 -17.239044 -71.94324 -17.239044z" fill-rule="evenodd"/><path stroke="#a9a9b3" stroke-width="24.0" stroke-linejoin="round" stroke-linecap="butt" d="m15.422558 128.98624l0 479.85666l46.571133 0l0 -377.077l192.79446 377.077l49.826096 0l0 -479.85666l-46.571136 0l0 376.74966l-192.79446 -376.74966z" fill-rule="evenodd"/><path stroke="#a9a9b3" stroke-width="24.0" stroke-linejoin="round" stroke-linecap="butt" d="m384.23587 128.98624l0 479.85666l229.35031 0l0 -56.627014l-180.77612 0l0 -423.22964z" fill-rule="evenodd"/><path stroke="#a9a9b3" stroke-width="24.0" stroke-linejoin="round" stroke-linecap="butt" d="m798.11804 120.80315c-24.704407 0 -47.155334 5.4553986 -67.352905 16.36618c-20.19751 10.910797 -35.55426 26.913284 -46.070312 48.007492c-10.516113 21.02147 -15.774109 43.643173 -15.774109 67.86513c0 22.03981 4.2843018 41.9702 12.852966 59.791153c8.624268 17.74823 21.699768 32.62326 39.226562 44.625122c13.52063 9.383301 37.140076 19.384857 70.858215 30.0047c33.7182 10.547089 55.501465 18.330109 65.34985 23.34909c15.3567505 7.6375427 26.373596 17.093536 33.050476 28.368042c6.676819 11.201752 10.015259 24.331085 10.015259 39.38797c0 14.838684 -3.477478 28.549896 -10.432556 41.133698c-6.899414 12.510986 -17.44336 22.367126 -31.631653 29.568237c-14.1883545 7.201111 -30.546692 10.801697 -49.07495 10.801697c-20.865234 0 -39.64392 -4.7280273 -56.33606 -14.184021c-16.6922 -9.528809 -29.01654 -21.967102 -36.973145 -37.31494c-7.90094 -15.420593 -12.936462 -35.13275 -15.106384 -59.136475l-45.820007 5.2371826c0.6676636 32.07773 7.3723755 60.845825 20.114075 86.30438c12.797302 25.385742 30.407532 44.40692 52.83069 57.063416c22.47876 12.656494 50.326843 18.984802 83.54425 18.984802c26.206665 0 49.770447 -6.255554 70.691284 -18.766602c20.976501 -12.583801 37.05664 -30.150146 48.240356 -52.699097c11.183777 -22.621765 16.775635 -46.69821 16.775635 -72.22946c0 -25.749481 -5.0911255 -48.480316 -15.273315 -68.192444c-10.182251 -19.784912 -25.956299 -36.114716 -47.322266 -48.98947c-14.689148 -8.728638 -41.78607 -18.912018 -81.29083 -30.550201c-39.449158 -11.710907 -63.847534 -23.13089 -73.19513 -34.259888c-9.514526 -11.129028 -14.271851 -25.31305 -14.271851 -42.552094c0 -19.85765 6.704712 -36.80574 20.114075 -50.8443c13.465027 -14.111298 34.886658 -21.166931 64.26483 -21.166931c28.209778 0 49.52008 7.7466583 63.93097 23.23999c14.466553 15.493317 22.951721 38.40599 25.455566 68.737976l46.571106 -4.5825195c-0.8345947 -28.149841 -6.84375 -53.353775 -18.027527 -75.6118c-11.183716 -22.25801 -27.180359 -39.097 -47.98993 -50.516968c-20.753906 -11.492699 -44.735046 -17.239044 -71.94324 -17.239044z" fill-rule="evenodd"/></g></svg>